{
  "accessors": [
    {
      "bufferView": 0,
      "componentType": 5126,
      "count": 192,
      "max": [
        0.1952332854270935,
        0.009999999776482582,
        0.009999999776482582
      ],
      "min": [
        -0.1952332854270935,
        -0.009999999776482582,
        -0.009999999776482582
      ],
      "name": "Cylinder.001/POSITION",
      "type": "VEC3"
    },
    {
      "bufferView": 0,
      "byteOffset": 12,
      "componentType": 5126,
      "count": 192,
      "name": "Cylinder.001/NORMAL",
      "type": "VEC3"
    },
    {
      "bufferView": 0,
      "byteOffset": 24,
      "componentType": 5126,
      "count": 192,
      "name": "Cylinder.001/TEXCOORD_0",
      "type": "VEC2"
    },
    {
      "bufferView": 1,
      "componentType": 5123,
      "count": 360,
      "name": "Cylinder.001/INDICES",
      "type": "SCALAR"
    }
  ],
  "asset": {
    "copyright": "Copyright (c) 2018-2020 Chukong Technologies Inc.",
    "generator": "FBX-glTF-conv",
    "version": "2.0"
  },
  "bufferViews": [
    {
      "buffer": 0,
      "byteLength": 6144,
      "byteStride": 32,
      "name": "Cylinder.001",
      "target": 34962
    },
    {
      "buffer": 0,
      "byteLength": 720,
      "byteOffset": 6144,
      "target": 34963
    }
  ],
  "buffers": [
    {
      "byteLength": 6864,
      "uri": "out.bin"
    }
  ],
  "extras": {
    "FBX-glTF-conv": {
      "animationFrameRate": 24.0,
      "fbxFileHeaderInfo": {
        "creationTimeStamp": {
          "day": 23,
          "hour": 14,
          "millisecond": 500,
          "minute": 5,
          "month": 1,
          "second": 58,
          "year": 2026
        },
        "creator": "Blender (stable FBX IO) - 4.4.3 - 5.12.7",
        "sceneInfo": {
          "author": "",
          "comment": "",
          "keywords": "",
          "original": {
            "applicationName": "Blender (stable FBX IO)",
            "applicationVendor": "Blender Foundation",
            "applicationVersion": "4.4.3",
            "fileName": "/foobar.fbx"
          },
          "revision": "",
          "subject": "",
          "title": "",
          "url": "/Users/schaurasiya/Documents/personal_workspace/CricketGame3D/assets/prefab/plus.fbx"
        }
      }
    }
  },
  "meshes": [
    {
      "name": "Cylinder.001",
      "primitives": [
        {
          "attributes": {
            "NORMAL": 1,
            "POSITION": 0,
            "TEXCOORD_0": 2
          },
          "indices": 3
        }
      ]
    }
  ],
  "nodes": [
    {
      "name": "Camera",
      "rotation": [
        -0.21255731582641602,
        0.9047969579696655,
        -0.08438930660486221,
        0.35922181606292725
      ],
      "scale": [
        100.0,
        100.00000762939453,
        99.99999237060547
      ],
      "translation": [
        7.358891487121582,
        4.958309173583984,
        6.925790786743164
      ]
    },
    {
      "mesh": 0,
      "name": "Cylinder.001",
      "rotation": [
        -0.5,
        0.5,
        -0.5,
        0.4999999701976776
      ],
      "scale": [
        1.8103162050247192,
        1.8103162050247192,
        35.3433952331543
      ]
    },
    {
      "name": "Light",
      "rotation": [
        0.16907575726509094,
        0.7558803558349609,
        -0.27217137813568115,
        0.5709474682807922
      ],
      "scale": [
        100.00000762939453,
        100.0,
        100.0
      ],
      "translation": [
        4.076245307922363,
        5.903862476348877,
        -1.0054539442062378
      ]
    }
  ],
  "scenes": [
    {
      "name": "Scene",
      "nodes": [
        0,
        1,
        2
      ]
    }
  ]
}