{
  "accessors": [
    {
      "bufferView": 0,
      "componentType": 5126,
      "count": 15901,
      "max": [
        0.9025658369064331,
        1.8088831901550293,
        0.17174169421195984
      ],
      "min": [
        -0.9025661945343018,
        -0.00032193775405175984,
        -0.1489570289850235
      ],
      "name": "Beta_Surface/POSITION",
      "type": "VEC3"
    },
    {
      "bufferView": 0,
      "byteOffset": 12,
      "componentType": 5126,
      "count": 15901,
      "name": "Beta_Surface/NORMAL",
      "type": "VEC3"
    },
    {
      "bufferView": 0,
      "byteOffset": 24,
      "componentType": 5126,
      "count": 15901,
      "name": "Beta_Surface/TEXCOORD_0",
      "type": "VEC2"
    },
    {
      "bufferView": 0,
      "byteOffset": 32,
      "componentType": 5123,
      "count": 15901,
      "name": "Beta_Surface/JOINTS_0",
      "type": "VEC4"
    },
    {
      "bufferView": 0,
      "byteOffset": 40,
      "componentType": 5126,
      "count": 15901,
      "name": "Beta_Surface/WEIGHTS_0",
      "type": "VEC4"
    },
    {
      "bufferView": 1,
      "componentType": 5123,
      "count": 84816,
      "name": "Beta_Surface/INDICES",
      "type": "SCALAR"
    },
    {
      "bufferView": 2,
      "componentType": 5126,
      "count": 65,
      "name": "/InverseBindMatrices",
      "type": "MAT4"
    },
    {
      "bufferView": 3,
      "componentType": 5126,
      "count": 12473,
      "max": [
        0.8834667205810547,
        1.5964422225952148,
        0.12501925230026245
      ],
      "min": [
        -0.8834670782089233,
        -0.00035116117214784026,
        -0.12990516424179077
      ],
      "name": "Beta_Joints/POSITION",
      "type": "VEC3"
    },
    {
      "bufferView": 3,
      "byteOffset": 12,
      "componentType": 5126,
      "count": 12473,
      "name": "Beta_Joints/NORMAL",
      "type": "VEC3"
    },
    {
      "bufferView": 3,
      "byteOffset": 24,
      "componentType": 5126,
      "count": 12473,
      "name": "Beta_Joints/TEXCOORD_0",
      "type": "VEC2"
    },
    {
      "bufferView": 3,
      "byteOffset": 32,
      "componentType": 5123,
      "count": 12473,
      "name": "Beta_Joints/JOINTS_0",
      "type": "VEC4"
    },
    {
      "bufferView": 3,
      "byteOffset": 40,
      "componentType": 5126,
      "count": 12473,
      "name": "Beta_Joints/WEIGHTS_0",
      "type": "VEC4"
    },
    {
      "bufferView": 4,
      "componentType": 5123,
      "count": 62520,
      "name": "Beta_Joints/INDICES",
      "type": "SCALAR"
    },
    {
      "bufferView": 5,
      "componentType": 5126,
      "count": 64,
      "name": "/InverseBindMatrices",
      "type": "MAT4"
    },
    {
      "bufferView": 6,
      "componentType": 5126,
      "count": 1,
      "name": "mixamorig:Hips/translation/Output",
      "type": "VEC3"
    },
    {
      "bufferView": 7,
      "componentType": 5126,
      "count": 1,
      "max": [
        0.03333333507180214
      ],
      "min": [
        0.03333333507180214
      ],
      "name": "mixamorig:Hips/translation/Input",
      "type": "SCALAR"
    },
    {
      "bufferView": 8,
      "componentType": 5126,
      "count": 1,
      "name": "mixamorig:Hips/rotation/Output",
      "type": "VEC4"
    },
    {
      "bufferView": 9,
      "componentType": 5126,
      "count": 1,
      "max": [
        0.03333333507180214
      ],
      "min": [
        0.03333333507180214
      ],
      "name": "mixamorig:Hips/rotation/Input",
      "type": "SCALAR"
    },
    {
      "bufferView": 10,
      "componentType": 5126,
      "count": 1,
      "name": "mixamorig:Spine/rotation/Output",
      "type": "VEC4"
    },
    {
      "bufferView": 11,
      "componentType": 5126,
      "count": 1,
      "max": [
        0.03333333507180214
      ],
      "min": [
        0.03333333507180214
      ],
      "name": "mixamorig:Spine/rotation/Input",
      "type": "SCALAR"
    },
    {
      "bufferView": 12,
      "componentType": 5126,
      "count": 1,
      "name": "mixamorig:Spine1/rotation/Output",
      "type": "VEC4"
    },
    {
      "bufferView": 13,
      "componentType": 5126,
      "count": 1,
      "max": [
        0.03333333507180214
      ],
      "min": [
        0.03333333507180214
      ],
      "name": "mixamorig:Spine1/rotation/Input",
      "type": "SCALAR"
    },
    {
      "bufferView": 14,
      "componentType": 5126,
      "count": 1,
      "name": "mixamorig:Spine2/rotation/Output",
      "type": "VEC4"
    },
    {
      "bufferView": 15,
      "componentType": 5126,
      "count": 1,
      "max": [
        0.03333333507180214
      ],
      "min": [
        0.03333333507180214
      ],
      "name": "mixamorig:Spine2/rotation/Input",
      "type": "SCALAR"
    },
    {
      "bufferView": 16,
      "componentType": 5126,
      "count": 1,
      "name": "mixamorig:Neck/rotation/Output",
      "type": "VEC4"
    },
    {
      "bufferView": 17,
      "componentType": 5126,
      "count": 1,
      "max": [
        0.03333333507180214
      ],
      "min": [
        0.03333333507180214
      ],
      "name": "mixamorig:Neck/rotation/Input",
      "type": "SCALAR"
    },
    {
      "bufferView": 18,
      "componentType": 5126,
      "count": 1,
      "name": "mixamorig:Head/rotation/Output",
      "type": "VEC4"
    },
    {
      "bufferView": 19,
      "componentType": 5126,
      "count": 1,
      "max": [
        0.03333333507180214
      ],
      "min": [
        0.03333333507180214
      ],
      "name": "mixamorig:Head/rotation/Input",
      "type": "SCALAR"
    },
    {
      "bufferView": 20,
      "componentType": 5126,
      "count": 1,
      "name": "mixamorig:RightShoulder/rotation/Output",
      "type": "VEC4"
    },
    {
      "bufferView": 21,
      "componentType": 5126,
      "count": 1,
      "max": [
        0.03333333507180214
      ],
      "min": [
        0.03333333507180214
      ],
      "name": "mixamorig:RightShoulder/rotation/Input",
      "type": "SCALAR"
    },
    {
      "bufferView": 22,
      "componentType": 5126,
      "count": 1,
      "name": "mixamorig:RightArm/rotation/Output",
      "type": "VEC4"
    },
    {
      "bufferView": 23,
      "componentType": 5126,
      "count": 1,
      "max": [
        0.03333333507180214
      ],
      "min": [
        0.03333333507180214
      ],
      "name": "mixamorig:RightArm/rotation/Input",
      "type": "SCALAR"
    },
    {
      "bufferView": 24,
      "componentType": 5126,
      "count": 1,
      "name": "mixamorig:RightForeArm/rotation/Output",
      "type": "VEC4"
    },
    {
      "bufferView": 25,
      "componentType": 5126,
      "count": 1,
      "max": [
        0.03333333507180214
      ],
      "min": [
        0.03333333507180214
      ],
      "name": "mixamorig:RightForeArm/rotation/Input",
      "type": "SCALAR"
    },
    {
      "bufferView": 26,
      "componentType": 5126,
      "count": 1,
      "name": "mixamorig:RightHand/rotation/Output",
      "type": "VEC4"
    },
    {
      "bufferView": 27,
      "componentType": 5126,
      "count": 1,
      "max": [
        0.03333333507180214
      ],
      "min": [
        0.03333333507180214
      ],
      "name": "mixamorig:RightHand/rotation/Input",
      "type": "SCALAR"
    },
    {
      "bufferView": 28,
      "componentType": 5126,
      "count": 1,
      "name": "mixamorig:RightHandThumb1/rotation/Output",
      "type": "VEC4"
    },
    {
      "bufferView": 29,
      "componentType": 5126,
      "count": 1,
      "max": [
        0.03333333507180214
      ],
      "min": [
        0.03333333507180214
      ],
      "name": "mixamorig:RightHandThumb1/rotation/Input",
      "type": "SCALAR"
    },
    {
      "bufferView": 30,
      "componentType": 5126,
      "count": 1,
      "name": "mixamorig:RightHandThumb2/rotation/Output",
      "type": "VEC4"
    },
    {
      "bufferView": 31,
      "componentType": 5126,
      "count": 1,
      "max": [
        0.03333333507180214
      ],
      "min": [
        0.03333333507180214
      ],
      "name": "mixamorig:RightHandThumb2/rotation/Input",
      "type": "SCALAR"
    },
    {
      "bufferView": 32,
      "componentType": 5126,
      "count": 1,
      "name": "mixamorig:RightHandThumb3/rotation/Output",
      "type": "VEC4"
    },
    {
      "bufferView": 33,
      "componentType": 5126,
      "count": 1,
      "max": [
        0.03333333507180214
      ],
      "min": [
        0.03333333507180214
      ],
      "name": "mixamorig:RightHandThumb3/rotation/Input",
      "type": "SCALAR"
    },
    {
      "bufferView": 34,
      "componentType": 5126,
      "count": 1,
      "name": "mixamorig:RightHandIndex1/rotation/Output",
      "type": "VEC4"
    },
    {
      "bufferView": 35,
      "componentType": 5126,
      "count": 1,
      "max": [
        0.03333333507180214
      ],
      "min": [
        0.03333333507180214
      ],
      "name": "mixamorig:RightHandIndex1/rotation/Input",
      "type": "SCALAR"
    },
    {
      "bufferView": 36,
      "componentType": 5126,
      "count": 1,
      "name": "mixamorig:RightHandIndex2/rotation/Output",
      "type": "VEC4"
    },
    {
      "bufferView": 37,
      "componentType": 5126,
      "count": 1,
      "max": [
        0.03333333507180214
      ],
      "min": [
        0.03333333507180214
      ],
      "name": "mixamorig:RightHandIndex2/rotation/Input",
      "type": "SCALAR"
    },
    {
      "bufferView": 38,
      "componentType": 5126,
      "count": 1,
      "name": "mixamorig:RightHandIndex3/rotation/Output",
      "type": "VEC4"
    },
    {
      "bufferView": 39,
      "componentType": 5126,
      "count": 1,
      "max": [
        0.03333333507180214
      ],
      "min": [
        0.03333333507180214
      ],
      "name": "mixamorig:RightHandIndex3/rotation/Input",
      "type": "SCALAR"
    },
    {
      "bufferView": 40,
      "componentType": 5126,
      "count": 1,
      "name": "mixamorig:RightHandMiddle1/rotation/Output",
      "type": "VEC4"
    },
    {
      "bufferView": 41,
      "componentType": 5126,
      "count": 1,
      "max": [
        0.03333333507180214
      ],
      "min": [
        0.03333333507180214
      ],
      "name": "mixamorig:RightHandMiddle1/rotation/Input",
      "type": "SCALAR"
    },
    {
      "bufferView": 42,
      "componentType": 5126,
      "count": 1,
      "name": "mixamorig:RightHandMiddle2/rotation/Output",
      "type": "VEC4"
    },
    {
      "bufferView": 43,
      "componentType": 5126,
      "count": 1,
      "max": [
        0.03333333507180214
      ],
      "min": [
        0.03333333507180214
      ],
      "name": "mixamorig:RightHandMiddle2/rotation/Input",
      "type": "SCALAR"
    },
    {
      "bufferView": 44,
      "componentType": 5126,
      "count": 1,
      "name": "mixamorig:RightHandMiddle3/rotation/Output",
      "type": "VEC4"
    },
    {
      "bufferView": 45,
      "componentType": 5126,
      "count": 1,
      "max": [
        0.03333333507180214
      ],
      "min": [
        0.03333333507180214
      ],
      "name": "mixamorig:RightHandMiddle3/rotation/Input",
      "type": "SCALAR"
    },
    {
      "bufferView": 46,
      "componentType": 5126,
      "count": 1,
      "name": "mixamorig:RightHandRing1/rotation/Output",
      "type": "VEC4"
    },
    {
      "bufferView": 47,
      "componentType": 5126,
      "count": 1,
      "max": [
        0.03333333507180214
      ],
      "min": [
        0.03333333507180214
      ],
      "name": "mixamorig:RightHandRing1/rotation/Input",
      "type": "SCALAR"
    },
    {
      "bufferView": 48,
      "componentType": 5126,
      "count": 1,
      "name": "mixamorig:RightHandRing2/rotation/Output",
      "type": "VEC4"
    },
    {
      "bufferView": 49,
      "componentType": 5126,
      "count": 1,
      "max": [
        0.03333333507180214
      ],
      "min": [
        0.03333333507180214
      ],
      "name": "mixamorig:RightHandRing2/rotation/Input",
      "type": "SCALAR"
    },
    {
      "bufferView": 50,
      "componentType": 5126,
      "count": 1,
      "name": "mixamorig:RightHandRing3/rotation/Output",
      "type": "VEC4"
    },
    {
      "bufferView": 51,
      "componentType": 5126,
      "count": 1,
      "max": [
        0.03333333507180214
      ],
      "min": [
        0.03333333507180214
      ],
      "name": "mixamorig:RightHandRing3/rotation/Input",
      "type": "SCALAR"
    },
    {
      "bufferView": 52,
      "componentType": 5126,
      "count": 1,
      "name": "mixamorig:RightHandPinky1/rotation/Output",
      "type": "VEC4"
    },
    {
      "bufferView": 53,
      "componentType": 5126,
      "count": 1,
      "max": [
        0.03333333507180214
      ],
      "min": [
        0.03333333507180214
      ],
      "name": "mixamorig:RightHandPinky1/rotation/Input",
      "type": "SCALAR"
    },
    {
      "bufferView": 54,
      "componentType": 5126,
      "count": 1,
      "name": "mixamorig:RightHandPinky2/rotation/Output",
      "type": "VEC4"
    },
    {
      "bufferView": 55,
      "componentType": 5126,
      "count": 1,
      "max": [
        0.03333333507180214
      ],
      "min": [
        0.03333333507180214
      ],
      "name": "mixamorig:RightHandPinky2/rotation/Input",
      "type": "SCALAR"
    },
    {
      "bufferView": 56,
      "componentType": 5126,
      "count": 1,
      "name": "mixamorig:RightHandPinky3/rotation/Output",
      "type": "VEC4"
    },
    {
      "bufferView": 57,
      "componentType": 5126,
      "count": 1,
      "max": [
        0.03333333507180214
      ],
      "min": [
        0.03333333507180214
      ],
      "name": "mixamorig:RightHandPinky3/rotation/Input",
      "type": "SCALAR"
    },
    {
      "bufferView": 58,
      "componentType": 5126,
      "count": 1,
      "name": "mixamorig:LeftShoulder/rotation/Output",
      "type": "VEC4"
    },
    {
      "bufferView": 59,
      "componentType": 5126,
      "count": 1,
      "max": [
        0.03333333507180214
      ],
      "min": [
        0.03333333507180214
      ],
      "name": "mixamorig:LeftShoulder/rotation/Input",
      "type": "SCALAR"
    },
    {
      "bufferView": 60,
      "componentType": 5126,
      "count": 1,
      "name": "mixamorig:LeftArm/rotation/Output",
      "type": "VEC4"
    },
    {
      "bufferView": 61,
      "componentType": 5126,
      "count": 1,
      "max": [
        0.03333333507180214
      ],
      "min": [
        0.03333333507180214
      ],
      "name": "mixamorig:LeftArm/rotation/Input",
      "type": "SCALAR"
    },
    {
      "bufferView": 62,
      "componentType": 5126,
      "count": 1,
      "name": "mixamorig:LeftForeArm/rotation/Output",
      "type": "VEC4"
    },
    {
      "bufferView": 63,
      "componentType": 5126,
      "count": 1,
      "max": [
        0.03333333507180214
      ],
      "min": [
        0.03333333507180214
      ],
      "name": "mixamorig:LeftForeArm/rotation/Input",
      "type": "SCALAR"
    },
    {
      "bufferView": 64,
      "componentType": 5126,
      "count": 1,
      "name": "mixamorig:LeftHand/rotation/Output",
      "type": "VEC4"
    },
    {
      "bufferView": 65,
      "componentType": 5126,
      "count": 1,
      "max": [
        0.03333333507180214
      ],
      "min": [
        0.03333333507180214
      ],
      "name": "mixamorig:LeftHand/rotation/Input",
      "type": "SCALAR"
    },
    {
      "bufferView": 66,
      "componentType": 5126,
      "count": 1,
      "name": "mixamorig:LeftHandThumb1/rotation/Output",
      "type": "VEC4"
    },
    {
      "bufferView": 67,
      "componentType": 5126,
      "count": 1,
      "max": [
        0.03333333507180214
      ],
      "min": [
        0.03333333507180214
      ],
      "name": "mixamorig:LeftHandThumb1/rotation/Input",
      "type": "SCALAR"
    },
    {
      "bufferView": 68,
      "componentType": 5126,
      "count": 1,
      "name": "mixamorig:LeftHandThumb2/rotation/Output",
      "type": "VEC4"
    },
    {
      "bufferView": 69,
      "componentType": 5126,
      "count": 1,
      "max": [
        0.03333333507180214
      ],
      "min": [
        0.03333333507180214
      ],
      "name": "mixamorig:LeftHandThumb2/rotation/Input",
      "type": "SCALAR"
    },
    {
      "bufferView": 70,
      "componentType": 5126,
      "count": 1,
      "name": "mixamorig:LeftHandThumb3/rotation/Output",
      "type": "VEC4"
    },
    {
      "bufferView": 71,
      "componentType": 5126,
      "count": 1,
      "max": [
        0.03333333507180214
      ],
      "min": [
        0.03333333507180214
      ],
      "name": "mixamorig:LeftHandThumb3/rotation/Input",
      "type": "SCALAR"
    },
    {
      "bufferView": 72,
      "componentType": 5126,
      "count": 1,
      "name": "mixamorig:LeftHandIndex1/rotation/Output",
      "type": "VEC4"
    },
    {
      "bufferView": 73,
      "componentType": 5126,
      "count": 1,
      "max": [
        0.03333333507180214
      ],
      "min": [
        0.03333333507180214
      ],
      "name": "mixamorig:LeftHandIndex1/rotation/Input",
      "type": "SCALAR"
    },
    {
      "bufferView": 74,
      "componentType": 5126,
      "count": 1,
      "name": "mixamorig:LeftHandIndex2/rotation/Output",
      "type": "VEC4"
    },
    {
      "bufferView": 75,
      "componentType": 5126,
      "count": 1,
      "max": [
        0.03333333507180214
      ],
      "min": [
        0.03333333507180214
      ],
      "name": "mixamorig:LeftHandIndex2/rotation/Input",
      "type": "SCALAR"
    },
    {
      "bufferView": 76,
      "componentType": 5126,
      "count": 1,
      "name": "mixamorig:LeftHandIndex3/rotation/Output",
      "type": "VEC4"
    },
    {
      "bufferView": 77,
      "componentType": 5126,
      "count": 1,
      "max": [
        0.03333333507180214
      ],
      "min": [
        0.03333333507180214
      ],
      "name": "mixamorig:LeftHandIndex3/rotation/Input",
      "type": "SCALAR"
    },
    {
      "bufferView": 78,
      "componentType": 5126,
      "count": 1,
      "name": "mixamorig:LeftHandMiddle1/rotation/Output",
      "type": "VEC4"
    },
    {
      "bufferView": 79,
      "componentType": 5126,
      "count": 1,
      "max": [
        0.03333333507180214
      ],
      "min": [
        0.03333333507180214
      ],
      "name": "mixamorig:LeftHandMiddle1/rotation/Input",
      "type": "SCALAR"
    },
    {
      "bufferView": 80,
      "componentType": 5126,
      "count": 1,
      "name": "mixamorig:LeftHandMiddle2/rotation/Output",
      "type": "VEC4"
    },
    {
      "bufferView": 81,
      "componentType": 5126,
      "count": 1,
      "max": [
        0.03333333507180214
      ],
      "min": [
        0.03333333507180214
      ],
      "name": "mixamorig:LeftHandMiddle2/rotation/Input",
      "type": "SCALAR"
    },
    {
      "bufferView": 82,
      "componentType": 5126,
      "count": 1,
      "name": "mixamorig:LeftHandMiddle3/rotation/Output",
      "type": "VEC4"
    },
    {
      "bufferView": 83,
      "componentType": 5126,
      "count": 1,
      "max": [
        0.03333333507180214
      ],
      "min": [
        0.03333333507180214
      ],
      "name": "mixamorig:LeftHandMiddle3/rotation/Input",
      "type": "SCALAR"
    },
    {
      "bufferView": 84,
      "componentType": 5126,
      "count": 1,
      "name": "mixamorig:LeftHandRing1/rotation/Output",
      "type": "VEC4"
    },
    {
      "bufferView": 85,
      "componentType": 5126,
      "count": 1,
      "max": [
        0.03333333507180214
      ],
      "min": [
        0.03333333507180214
      ],
      "name": "mixamorig:LeftHandRing1/rotation/Input",
      "type": "SCALAR"
    },
    {
      "bufferView": 86,
      "componentType": 5126,
      "count": 1,
      "name": "mixamorig:LeftHandRing2/rotation/Output",
      "type": "VEC4"
    },
    {
      "bufferView": 87,
      "componentType": 5126,
      "count": 1,
      "max": [
        0.03333333507180214
      ],
      "min": [
        0.03333333507180214
      ],
      "name": "mixamorig:LeftHandRing2/rotation/Input",
      "type": "SCALAR"
    },
    {
      "bufferView": 88,
      "componentType": 5126,
      "count": 1,
      "name": "mixamorig:LeftHandRing3/rotation/Output",
      "type": "VEC4"
    },
    {
      "bufferView": 89,
      "componentType": 5126,
      "count": 1,
      "max": [
        0.03333333507180214
      ],
      "min": [
        0.03333333507180214
      ],
      "name": "mixamorig:LeftHandRing3/rotation/Input",
      "type": "SCALAR"
    },
    {
      "bufferView": 90,
      "componentType": 5126,
      "count": 1,
      "name": "mixamorig:LeftHandPinky1/rotation/Output",
      "type": "VEC4"
    },
    {
      "bufferView": 91,
      "componentType": 5126,
      "count": 1,
      "max": [
        0.03333333507180214
      ],
      "min": [
        0.03333333507180214
      ],
      "name": "mixamorig:LeftHandPinky1/rotation/Input",
      "type": "SCALAR"
    },
    {
      "bufferView": 92,
      "componentType": 5126,
      "count": 1,
      "name": "mixamorig:LeftHandPinky2/rotation/Output",
      "type": "VEC4"
    },
    {
      "bufferView": 93,
      "componentType": 5126,
      "count": 1,
      "max": [
        0.03333333507180214
      ],
      "min": [
        0.03333333507180214
      ],
      "name": "mixamorig:LeftHandPinky2/rotation/Input",
      "type": "SCALAR"
    },
    {
      "bufferView": 94,
      "componentType": 5126,
      "count": 1,
      "name": "mixamorig:LeftHandPinky3/rotation/Output",
      "type": "VEC4"
    },
    {
      "bufferView": 95,
      "componentType": 5126,
      "count": 1,
      "max": [
        0.03333333507180214
      ],
      "min": [
        0.03333333507180214
      ],
      "name": "mixamorig:LeftHandPinky3/rotation/Input",
      "type": "SCALAR"
    },
    {
      "bufferView": 96,
      "componentType": 5126,
      "count": 1,
      "name": "mixamorig:RightUpLeg/rotation/Output",
      "type": "VEC4"
    },
    {
      "bufferView": 97,
      "componentType": 5126,
      "count": 1,
      "max": [
        0.03333333507180214
      ],
      "min": [
        0.03333333507180214
      ],
      "name": "mixamorig:RightUpLeg/rotation/Input",
      "type": "SCALAR"
    },
    {
      "bufferView": 98,
      "componentType": 5126,
      "count": 1,
      "name": "mixamorig:RightLeg/rotation/Output",
      "type": "VEC4"
    },
    {
      "bufferView": 99,
      "componentType": 5126,
      "count": 1,
      "max": [
        0.03333333507180214
      ],
      "min": [
        0.03333333507180214
      ],
      "name": "mixamorig:RightLeg/rotation/Input",
      "type": "SCALAR"
    },
    {
      "bufferView": 100,
      "componentType": 5126,
      "count": 1,
      "name": "mixamorig:RightFoot/rotation/Output",
      "type": "VEC4"
    },
    {
      "bufferView": 101,
      "componentType": 5126,
      "count": 1,
      "max": [
        0.03333333507180214
      ],
      "min": [
        0.03333333507180214
      ],
      "name": "mixamorig:RightFoot/rotation/Input",
      "type": "SCALAR"
    },
    {
      "bufferView": 102,
      "componentType": 5126,
      "count": 1,
      "name": "mixamorig:RightToeBase/rotation/Output",
      "type": "VEC4"
    },
    {
      "bufferView": 103,
      "componentType": 5126,
      "count": 1,
      "max": [
        0.03333333507180214
      ],
      "min": [
        0.03333333507180214
      ],
      "name": "mixamorig:RightToeBase/rotation/Input",
      "type": "SCALAR"
    },
    {
      "bufferView": 104,
      "componentType": 5126,
      "count": 1,
      "name": "mixamorig:LeftUpLeg/rotation/Output",
      "type": "VEC4"
    },
    {
      "bufferView": 105,
      "componentType": 5126,
      "count": 1,
      "max": [
        0.03333333507180214
      ],
      "min": [
        0.03333333507180214
      ],
      "name": "mixamorig:LeftUpLeg/rotation/Input",
      "type": "SCALAR"
    },
    {
      "bufferView": 106,
      "componentType": 5126,
      "count": 1,
      "name": "mixamorig:LeftLeg/rotation/Output",
      "type": "VEC4"
    },
    {
      "bufferView": 107,
      "componentType": 5126,
      "count": 1,
      "max": [
        0.03333333507180214
      ],
      "min": [
        0.03333333507180214
      ],
      "name": "mixamorig:LeftLeg/rotation/Input",
      "type": "SCALAR"
    },
    {
      "bufferView": 108,
      "componentType": 5126,
      "count": 1,
      "name": "mixamorig:LeftFoot/rotation/Output",
      "type": "VEC4"
    },
    {
      "bufferView": 109,
      "componentType": 5126,
      "count": 1,
      "max": [
        0.03333333507180214
      ],
      "min": [
        0.03333333507180214
      ],
      "name": "mixamorig:LeftFoot/rotation/Input",
      "type": "SCALAR"
    },
    {
      "bufferView": 110,
      "componentType": 5126,
      "count": 1,
      "name": "mixamorig:LeftToeBase/rotation/Output",
      "type": "VEC4"
    },
    {
      "bufferView": 111,
      "componentType": 5126,
      "count": 1,
      "max": [
        0.03333333507180214
      ],
      "min": [
        0.03333333507180214
      ],
      "name": "mixamorig:LeftToeBase/rotation/Input",
      "type": "SCALAR"
    }
  ],
  "animations": [
    {
      "channels": [
        {
          "sampler": 0,
          "target": {
            "node": 0,
            "path": "translation"
          }
        },
        {
          "sampler": 1,
          "target": {
            "node": 0,
            "path": "rotation"
          }
        },
        {
          "sampler": 2,
          "target": {
            "node": 1,
            "path": "rotation"
          }
        },
        {
          "sampler": 3,
          "target": {
            "node": 2,
            "path": "rotation"
          }
        },
        {
          "sampler": 4,
          "target": {
            "node": 3,
            "path": "rotation"
          }
        },
        {
          "sampler": 5,
          "target": {
            "node": 4,
            "path": "rotation"
          }
        },
        {
          "sampler": 6,
          "target": {
            "node": 5,
            "path": "rotation"
          }
        },
        {
          "sampler": 7,
          "target": {
            "node": 7,
            "path": "rotation"
          }
        },
        {
          "sampler": 8,
          "target": {
            "node": 8,
            "path": "rotation"
          }
        },
        {
          "sampler": 9,
          "target": {
            "node": 9,
            "path": "rotation"
          }
        },
        {
          "sampler": 10,
          "target": {
            "node": 10,
            "path": "rotation"
          }
        },
        {
          "sampler": 11,
          "target": {
            "node": 11,
            "path": "rotation"
          }
        },
        {
          "sampler": 12,
          "target": {
            "node": 12,
            "path": "rotation"
          }
        },
        {
          "sampler": 13,
          "target": {
            "node": 13,
            "path": "rotation"
          }
        },
        {
          "sampler": 14,
          "target": {
            "node": 15,
            "path": "rotation"
          }
        },
        {
          "sampler": 15,
          "target": {
            "node": 16,
            "path": "rotation"
          }
        },
        {
          "sampler": 16,
          "target": {
            "node": 17,
            "path": "rotation"
          }
        },
        {
          "sampler": 17,
          "target": {
            "node": 19,
            "path": "rotation"
          }
        },
        {
          "sampler": 18,
          "target": {
            "node": 20,
            "path": "rotation"
          }
        },
        {
          "sampler": 19,
          "target": {
            "node": 21,
            "path": "rotation"
          }
        },
        {
          "sampler": 20,
          "target": {
            "node": 23,
            "path": "rotation"
          }
        },
        {
          "sampler": 21,
          "target": {
            "node": 24,
            "path": "rotation"
          }
        },
        {
          "sampler": 22,
          "target": {
            "node": 25,
            "path": "rotation"
          }
        },
        {
          "sampler": 23,
          "target": {
            "node": 27,
            "path": "rotation"
          }
        },
        {
          "sampler": 24,
          "target": {
            "node": 28,
            "path": "rotation"
          }
        },
        {
          "sampler": 25,
          "target": {
            "node": 29,
            "path": "rotation"
          }
        },
        {
          "sampler": 26,
          "target": {
            "node": 31,
            "path": "rotation"
          }
        },
        {
          "sampler": 27,
          "target": {
            "node": 32,
            "path": "rotation"
          }
        },
        {
          "sampler": 28,
          "target": {
            "node": 33,
            "path": "rotation"
          }
        },
        {
          "sampler": 29,
          "target": {
            "node": 34,
            "path": "rotation"
          }
        },
        {
          "sampler": 30,
          "target": {
            "node": 35,
            "path": "rotation"
          }
        },
        {
          "sampler": 31,
          "target": {
            "node": 36,
            "path": "rotation"
          }
        },
        {
          "sampler": 32,
          "target": {
            "node": 37,
            "path": "rotation"
          }
        },
        {
          "sampler": 33,
          "target": {
            "node": 39,
            "path": "rotation"
          }
        },
        {
          "sampler": 34,
          "target": {
            "node": 40,
            "path": "rotation"
          }
        },
        {
          "sampler": 35,
          "target": {
            "node": 41,
            "path": "rotation"
          }
        },
        {
          "sampler": 36,
          "target": {
            "node": 43,
            "path": "rotation"
          }
        },
        {
          "sampler": 37,
          "target": {
            "node": 44,
            "path": "rotation"
          }
        },
        {
          "sampler": 38,
          "target": {
            "node": 45,
            "path": "rotation"
          }
        },
        {
          "sampler": 39,
          "target": {
            "node": 47,
            "path": "rotation"
          }
        },
        {
          "sampler": 40,
          "target": {
            "node": 48,
            "path": "rotation"
          }
        },
        {
          "sampler": 41,
          "target": {
            "node": 49,
            "path": "rotation"
          }
        },
        {
          "sampler": 42,
          "target": {
            "node": 51,
            "path": "rotation"
          }
        },
        {
          "sampler": 43,
          "target": {
            "node": 52,
            "path": "rotation"
          }
        },
        {
          "sampler": 44,
          "target": {
            "node": 53,
            "path": "rotation"
          }
        },
        {
          "sampler": 45,
          "target": {
            "node": 55,
            "path": "rotation"
          }
        },
        {
          "sampler": 46,
          "target": {
            "node": 56,
            "path": "rotation"
          }
        },
        {
          "sampler": 47,
          "target": {
            "node": 57,
            "path": "rotation"
          }
        },
        {
          "sampler": 48,
          "target": {
            "node": 58,
            "path": "rotation"
          }
        },
        {
          "sampler": 49,
          "target": {
            "node": 60,
            "path": "rotation"
          }
        },
        {
          "sampler": 50,
          "target": {
            "node": 61,
            "path": "rotation"
          }
        },
        {
          "sampler": 51,
          "target": {
            "node": 62,
            "path": "rotation"
          }
        },
        {
          "sampler": 52,
          "target": {
            "node": 63,
            "path": "rotation"
          }
        }
      ],
      "name": "mixamo.com",
      "samplers": [
        {
          "input": 15,
          "output": 14
        },
        {
          "input": 17,
          "output": 16
        },
        {
          "input": 19,
          "output": 18
        },
        {
          "input": 21,
          "output": 20
        },
        {
          "input": 23,
          "output": 22
        },
        {
          "input": 25,
          "output": 24
        },
        {
          "input": 27,
          "output": 26
        },
        {
          "input": 29,
          "output": 28
        },
        {
          "input": 31,
          "output": 30
        },
        {
          "input": 33,
          "output": 32
        },
        {
          "input": 35,
          "output": 34
        },
        {
          "input": 37,
          "output": 36
        },
        {
          "input": 39,
          "output": 38
        },
        {
          "input": 41,
          "output": 40
        },
        {
          "input": 43,
          "output": 42
        },
        {
          "input": 45,
          "output": 44
        },
        {
          "input": 47,
          "output": 46
        },
        {
          "input": 49,
          "output": 48
        },
        {
          "input": 51,
          "output": 50
        },
        {
          "input": 53,
          "output": 52
        },
        {
          "input": 55,
          "output": 54
        },
        {
          "input": 57,
          "output": 56
        },
        {
          "input": 59,
          "output": 58
        },
        {
          "input": 61,
          "output": 60
        },
        {
          "input": 63,
          "output": 62
        },
        {
          "input": 65,
          "output": 64
        },
        {
          "input": 67,
          "output": 66
        },
        {
          "input": 69,
          "output": 68
        },
        {
          "input": 71,
          "output": 70
        },
        {
          "input": 73,
          "output": 72
        },
        {
          "input": 75,
          "output": 74
        },
        {
          "input": 77,
          "output": 76
        },
        {
          "input": 79,
          "output": 78
        },
        {
          "input": 81,
          "output": 80
        },
        {
          "input": 83,
          "output": 82
        },
        {
          "input": 85,
          "output": 84
        },
        {
          "input": 87,
          "output": 86
        },
        {
          "input": 89,
          "output": 88
        },
        {
          "input": 91,
          "output": 90
        },
        {
          "input": 93,
          "output": 92
        },
        {
          "input": 95,
          "output": 94
        },
        {
          "input": 97,
          "output": 96
        },
        {
          "input": 99,
          "output": 98
        },
        {
          "input": 101,
          "output": 100
        },
        {
          "input": 103,
          "output": 102
        },
        {
          "input": 105,
          "output": 104
        },
        {
          "input": 107,
          "output": 106
        },
        {
          "input": 109,
          "output": 108
        },
        {
          "input": 111,
          "output": 110
        },
        {
          "input": 113,
          "output": 112
        },
        {
          "input": 115,
          "output": 114
        },
        {
          "input": 117,
          "output": 116
        },
        {
          "input": 119,
          "output": 118
        }
      ]
    }
  ],
  "asset": {
    "copyright": "Copyright (c) 2018-2020 Chukong Technologies Inc.",
    "generator": "FBX-glTF-conv",
    "version": "2.0"
  },
  "bufferViews": [
    {
      "buffer": 0,
      "byteLength": 890456,
      "byteStride": 56,
      "name": "Beta_Surface",
      "target": 34962
    },
    {
      "buffer": 0,
      "byteLength": 169632,
      "byteOffset": 890456,
      "target": 34963
    },
    {
      "buffer": 0,
      "byteLength": 4160,
      "byteOffset": 1060088
    },
    {
      "buffer": 0,
      "byteLength": 698488,
      "byteOffset": 1064248,
      "byteStride": 56,
      "name": "Beta_Joints",
      "target": 34962
    },
    {
      "buffer": 0,
      "byteLength": 125040,
      "byteOffset": 1762736,
      "target": 34963
    },
    {
      "buffer": 0,
      "byteLength": 4096,
      "byteOffset": 1887776
    },
    {
      "buffer": 0,
      "byteLength": 12,
      "byteOffset": 1891872
    },
    {
      "buffer": 0,
      "byteLength": 4,
      "byteOffset": 1891884
    },
    {
      "buffer": 0,
      "byteLength": 16,
      "byteOffset": 1891888
    },
    {
      "buffer": 0,
      "byteLength": 4,
      "byteOffset": 1891904
    },
    {
      "buffer": 0,
      "byteLength": 16,
      "byteOffset": 1891908
    },
    {
      "buffer": 0,
      "byteLength": 4,
      "byteOffset": 1891924
    },
    {
      "buffer": 0,
      "byteLength": 16,
      "byteOffset": 1891928
    },
    {
      "buffer": 0,
      "byteLength": 4,
      "byteOffset": 1891944
    },
    {
      "buffer": 0,
      "byteLength": 16,
      "byteOffset": 1891948
    },
    {
      "buffer": 0,
      "byteLength": 4,
      "byteOffset": 1891964
    },
    {
      "buffer": 0,
      "byteLength": 16,
      "byteOffset": 1891968
    },
    {
      "buffer": 0,
      "byteLength": 4,
      "byteOffset": 1891984
    },
    {
      "buffer": 0,
      "byteLength": 16,
      "byteOffset": 1891988
    },
    {
      "buffer": 0,
      "byteLength": 4,
      "byteOffset": 1892004
    },
    {
      "buffer": 0,
      "byteLength": 16,
      "byteOffset": 1892008
    },
    {
      "buffer": 0,
      "byteLength": 4,
      "byteOffset": 1892024
    },
    {
      "buffer": 0,
      "byteLength": 16,
      "byteOffset": 1892028
    },
    {
      "buffer": 0,
      "byteLength": 4,
      "byteOffset": 1892044
    },
    {
      "buffer": 0,
      "byteLength": 16,
      "byteOffset": 1892048
    },
    {
      "buffer": 0,
      "byteLength": 4,
      "byteOffset": 1892064
    },
    {
      "buffer": 0,
      "byteLength": 16,
      "byteOffset": 1892068
    },
    {
      "buffer": 0,
      "byteLength": 4,
      "byteOffset": 1892084
    },
    {
      "buffer": 0,
      "byteLength": 16,
      "byteOffset": 1892088
    },
    {
      "buffer": 0,
      "byteLength": 4,
      "byteOffset": 1892104
    },
    {
      "buffer": 0,
      "byteLength": 16,
      "byteOffset": 1892108
    },
    {
      "buffer": 0,
      "byteLength": 4,
      "byteOffset": 1892124
    },
    {
      "buffer": 0,
      "byteLength": 16,
      "byteOffset": 1892128
    },
    {
      "buffer": 0,
      "byteLength": 4,
      "byteOffset": 1892144
    },
    {
      "buffer": 0,
      "byteLength": 16,
      "byteOffset": 1892148
    },
    {
      "buffer": 0,
      "byteLength": 4,
      "byteOffset": 1892164
    },
    {
      "buffer": 0,
      "byteLength": 16,
      "byteOffset": 1892168
    },
    {
      "buffer": 0,
      "byteLength": 4,
      "byteOffset": 1892184
    },
    {
      "buffer": 0,
      "byteLength": 16,
      "byteOffset": 1892188
    },
    {
      "buffer": 0,
      "byteLength": 4,
      "byteOffset": 1892204
    },
    {
      "buffer": 0,
      "byteLength": 16,
      "byteOffset": 1892208
    },
    {
      "buffer": 0,
      "byteLength": 4,
      "byteOffset": 1892224
    },
    {
      "buffer": 0,
      "byteLength": 16,
      "byteOffset": 1892228
    },
    {
      "buffer": 0,
      "byteLength": 4,
      "byteOffset": 1892244
    },
    {
      "buffer": 0,
      "byteLength": 16,
      "byteOffset": 1892248
    },
    {
      "buffer": 0,
      "byteLength": 4,
      "byteOffset": 1892264
    },
    {
      "buffer": 0,
      "byteLength": 16,
      "byteOffset": 1892268
    },
    {
      "buffer": 0,
      "byteLength": 4,
      "byteOffset": 1892284
    },
    {
      "buffer": 0,
      "byteLength": 16,
      "byteOffset": 1892288
    },
    {
      "buffer": 0,
      "byteLength": 4,
      "byteOffset": 1892304
    },
    {
      "buffer": 0,
      "byteLength": 16,
      "byteOffset": 1892308
    },
    {
      "buffer": 0,
      "byteLength": 4,
      "byteOffset": 1892324
    },
    {
      "buffer": 0,
      "byteLength": 16,
      "byteOffset": 1892328
    },
    {
      "buffer": 0,
      "byteLength": 4,
      "byteOffset": 1892344
    },
    {
      "buffer": 0,
      "byteLength": 16,
      "byteOffset": 1892348
    },
    {
      "buffer": 0,
      "byteLength": 4,
      "byteOffset": 1892364
    },
    {
      "buffer": 0,
      "byteLength": 16,
      "byteOffset": 1892368
    },
    {
      "buffer": 0,
      "byteLength": 4,
      "byteOffset": 1892384
    },
    {
      "buffer": 0,
      "byteLength": 16,
      "byteOffset": 1892388
    },
    {
      "buffer": 0,
      "byteLength": 4,
      "byteOffset": 1892404
    },
    {
      "buffer": 0,
      "byteLength": 16,
      "byteOffset": 1892408
    },
    {
      "buffer": 0,
      "byteLength": 4,
      "byteOffset": 1892424
    },
    {
      "buffer": 0,
      "byteLength": 16,
      "byteOffset": 1892428
    },
    {
      "buffer": 0,
      "byteLength": 4,
      "byteOffset": 1892444
    },
    {
      "buffer": 0,
      "byteLength": 16,
      "byteOffset": 1892448
    },
    {
      "buffer": 0,
      "byteLength": 4,
      "byteOffset": 1892464
    },
    {
      "buffer": 0,
      "byteLength": 16,
      "byteOffset": 1892468
    },
    {
      "buffer": 0,
      "byteLength": 4,
      "byteOffset": 1892484
    },
    {
      "buffer": 0,
      "byteLength": 16,
      "byteOffset": 1892488
    },
    {
      "buffer": 0,
      "byteLength": 4,
      "byteOffset": 1892504
    },
    {
      "buffer": 0,
      "byteLength": 16,
      "byteOffset": 1892508
    },
    {
      "buffer": 0,
      "byteLength": 4,
      "byteOffset": 1892524
    },
    {
      "buffer": 0,
      "byteLength": 16,
      "byteOffset": 1892528
    },
    {
      "buffer": 0,
      "byteLength": 4,
      "byteOffset": 1892544
    },
    {
      "buffer": 0,
      "byteLength": 16,
      "byteOffset": 1892548
    },
    {
      "buffer": 0,
      "byteLength": 4,
      "byteOffset": 1892564
    },
    {
      "buffer": 0,
      "byteLength": 16,
      "byteOffset": 1892568
    },
    {
      "buffer": 0,
      "byteLength": 4,
      "byteOffset": 1892584
    },
    {
      "buffer": 0,
      "byteLength": 16,
      "byteOffset": 1892588
    },
    {
      "buffer": 0,
      "byteLength": 4,
      "byteOffset": 1892604
    },
    {
      "buffer": 0,
      "byteLength": 16,
      "byteOffset": 1892608
    },
    {
      "buffer": 0,
      "byteLength": 4,
      "byteOffset": 1892624
    },
    {
      "buffer": 0,
      "byteLength": 16,
      "byteOffset": 1892628
    },
    {
      "buffer": 0,
      "byteLength": 4,
      "byteOffset": 1892644
    },
    {
      "buffer": 0,
      "byteLength": 16,
      "byteOffset": 1892648
    },
    {
      "buffer": 0,
      "byteLength": 4,
      "byteOffset": 1892664
    },
    {
      "buffer": 0,
      "byteLength": 16,
      "byteOffset": 1892668
    },
    {
      "buffer": 0,
      "byteLength": 4,
      "byteOffset": 1892684
    },
    {
      "buffer": 0,
      "byteLength": 16,
      "byteOffset": 1892688
    },
    {
      "buffer": 0,
      "byteLength": 4,
      "byteOffset": 1892704
    },
    {
      "buffer": 0,
      "byteLength": 16,
      "byteOffset": 1892708
    },
    {
      "buffer": 0,
      "byteLength": 4,
      "byteOffset": 1892724
    },
    {
      "buffer": 0,
      "byteLength": 16,
      "byteOffset": 1892728
    },
    {
      "buffer": 0,
      "byteLength": 4,
      "byteOffset": 1892744
    },
    {
      "buffer": 0,
      "byteLength": 16,
      "byteOffset": 1892748
    },
    {
      "buffer": 0,
      "byteLength": 4,
      "byteOffset": 1892764
    },
    {
      "buffer": 0,
      "byteLength": 16,
      "byteOffset": 1892768
    },
    {
      "buffer": 0,
      "byteLength": 4,
      "byteOffset": 1892784
    },
    {
      "buffer": 0,
      "byteLength": 16,
      "byteOffset": 1892788
    },
    {
      "buffer": 0,
      "byteLength": 4,
      "byteOffset": 1892804
    },
    {
      "buffer": 0,
      "byteLength": 16,
      "byteOffset": 1892808
    },
    {
      "buffer": 0,
      "byteLength": 4,
      "byteOffset": 1892824
    },
    {
      "buffer": 0,
      "byteLength": 16,
      "byteOffset": 1892828
    },
    {
      "buffer": 0,
      "byteLength": 4,
      "byteOffset": 1892844
    },
    {
      "buffer": 0,
      "byteLength": 16,
      "byteOffset": 1892848
    },
    {
      "buffer": 0,
      "byteLength": 4,
      "byteOffset": 1892864
    },
    {
      "buffer": 0,
      "byteLength": 16,
      "byteOffset": 1892868
    },
    {
      "buffer": 0,
      "byteLength": 4,
      "byteOffset": 1892884
    },
    {
      "buffer": 0,
      "byteLength": 16,
      "byteOffset": 1892888
    },
    {
      "buffer": 0,
      "byteLength": 4,
      "byteOffset": 1892904
    },
    {
      "buffer": 0,
      "byteLength": 16,
      "byteOffset": 1892908
    },
    {
      "buffer": 0,
      "byteLength": 4,
      "byteOffset": 1892924
    }
  ],
  "buffers": [
    {
      "byteLength": 1892928,
      "uri": "out.bin"
    }
  ],
  "extras": {
    "FBX-glTF-conv": {
      "animationFrameRate": 30.0,
      "fbxFileHeaderInfo": {
        "creationTimeStamp": {
          "day": 21,
          "hour": 11,
          "millisecond": 0,
          "minute": 46,
          "month": 1,
          "second": 52,
          "year": 2026
        },
        "creator": "FBX SDK/FBX Plugins version 2020.2",
        "sceneInfo": {
          "author": "",
          "comment": "",
          "keywords": "",
          "original": {
            "applicationName": "mixamo.com",
            "applicationVendor": "Mixamo, Inc.",
            "applicationVersion": "$URL$ fb3fcc8",
            "fileName": "MotionOnlyScene; Retargeted Clip; Motion Sequence; 1 motions; Skeleton mixamorig:Hips_skin-file:/home/app/mixamo-mini/tmp/skins_3079a103-58ba-4d3d-ac6d-495f7d81579d.fbx"
          },
          "revision": "",
          "subject": "",
          "title": "",
          "url": "/Users/schaurasiya/Documents/workspace/NewProject/assets/glb/X Bot.fbx"
        }
      }
    }
  },
  "materials": [
    {
      "extras": {
        "FBX-glTF-conv": {
          "raw": {
            "properties": {
              "ambient": {
                "value": [
                  0.0,
                  0.0,
                  0.0
                ]
              },
              "ambientFactor": {
                "value": 1.0
              },
              "bump": {
                "value": [
                  0.0,
                  0.0,
                  0.0
                ]
              },
              "bumpFactor": {
                "value": 1.0
              },
              "diffuse": {
                "value": [
                  0.8370000123977661,
                  0.30230802297592163,
                  0.26365500688552856
                ]
              },
              "diffuseFactor": {
                "value": 0.800000011920929
              },
              "displacementColor": {
                "value": [
                  0.0,
                  0.0,
                  0.0
                ]
              },
              "displacementFactor": {
                "value": 1.0
              },
              "emissive": {
                "value": [
                  0.0,
                  0.0,
                  0.0
                ]
              },
              "emissiveFactor": {
                "value": 1.0
              },
              "normalMap": {
                "value": [
                  0.0,
                  0.0,
                  0.0
                ]
              },
              "reflection": {
                "value": [
                  0.0,
                  0.0,
                  0.0
                ]
              },
              "reflectionFactor": {
                "value": 0.0
              },
              "shadingModel": "Phong",
              "shininess": {
                "value": 3.675213575363159
              },
              "specular": {
                "value": [
                  0.48717477917671204,
                  0.48717477917671204,
                  0.48717477917671204
                ]
              },
              "specularFactor": {
                "value": 1.0
              },
              "transparencyFactor": {
                "value": 1.0
              },
              "transparentColor": {
                "value": [
                  0.0,
                  0.0,
                  0.0
                ]
              },
              "vectorDisplacementColor": {
                "value": [
                  0.0,
                  0.0,
                  0.0
                ]
              },
              "vectorDisplacementFactor": {
                "value": 1.0
              }
            },
            "type": "phong"
          }
        }
      },
      "name": "Beta_HighLimbsGeoSG3"
    },
    {
      "extras": {
        "FBX-glTF-conv": {
          "raw": {
            "properties": {
              "ambient": {
                "value": [
                  0.0,
                  0.0,
                  0.0
                ]
              },
              "ambientFactor": {
                "value": 1.0
              },
              "bump": {
                "value": [
                  0.0,
                  0.0,
                  0.0
                ]
              },
              "bumpFactor": {
                "value": 1.0
              },
              "diffuse": {
                "value": [
                  0.3333333432674408,
                  0.12452887743711472,
                  0.10101473331451416
                ]
              },
              "diffuseFactor": {
                "value": 0.800000011920929
              },
              "displacementColor": {
                "value": [
                  0.0,
                  0.0,
                  0.0
                ]
              },
              "displacementFactor": {
                "value": 1.0
              },
              "emissive": {
                "value": [
                  0.0,
                  0.0,
                  0.0
                ]
              },
              "emissiveFactor": {
                "value": 1.0
              },
              "normalMap": {
                "value": [
                  0.0,
                  0.0,
                  0.0
                ]
              },
              "reflection": {
                "value": [
                  0.0,
                  0.0,
                  0.0
                ]
              },
              "reflectionFactor": {
                "value": 0.5
              },
              "shadingModel": "Phong",
              "shininess": {
                "value": 2.0
              },
              "specular": {
                "value": [
                  0.2991378605365753,
                  0.2991378605365753,
                  0.2991378605365753
                ]
              },
              "specularFactor": {
                "value": 1.0
              },
              "transparencyFactor": {
                "value": 1.0
              },
              "transparentColor": {
                "value": [
                  0.0,
                  0.0,
                  0.0
                ]
              },
              "vectorDisplacementColor": {
                "value": [
                  0.0,
                  0.0,
                  0.0
                ]
              },
              "vectorDisplacementFactor": {
                "value": 1.0
              }
            },
            "type": "phong"
          }
        }
      },
      "name": "Beta_Joints_MAT1"
    }
  ],
  "meshes": [
    {
      "name": "Beta_Surface",
      "primitives": [
        {
          "attributes": {
            "JOINTS_0": 3,
            "NORMAL": 1,
            "POSITION": 0,
            "TEXCOORD_0": 2,
            "WEIGHTS_0": 4
          },
          "indices": 5,
          "material": 0
        }
      ]
    },
    {
      "name": "Beta_Joints",
      "primitives": [
        {
          "attributes": {
            "JOINTS_0": 10,
            "NORMAL": 8,
            "POSITION": 7,
            "TEXCOORD_0": 9,
            "WEIGHTS_0": 11
          },
          "indices": 12,
          "material": 1
        }
      ]
    }
  ],
  "nodes": [
    {
      "children": [
        1,
        55,
        60
      ],
      "extras": {
        "FBX-glTF-conv": {
          "skeleton": {
            "skeletonType": "LimbNode"
          }
        }
      },
      "name": "mixamorig:Hips",
      "rotation": [
        0.006458546034991741,
        0.0,
        0.0,
        0.9999791383743286
      ],
      "translation": [
        -7.727290807224563e-08,
        1.0427486896514893,
        0.015543158166110516
      ]
    },
    {
      "children": [
        2
      ],
      "extras": {
        "FBX-glTF-conv": {
          "skeleton": {
            "skeletonType": "LimbNode"
          }
        }
      },
      "name": "mixamorig:Spine",
      "rotation": [
        -0.08015572279691696,
        8.298507489450198e-24,
        -2.480680905136978e-07,
        0.9967823624610901
      ],
      "translation": [
        -4.255830497040813e-12,
        0.10182436555624008,
        -3.996803047469241e-17
      ]
    },
    {
      "children": [
        3
      ],
      "extras": {
        "FBX-glTF-conv": {
          "skeleton": {
            "skeletonType": "LimbNode"
          }
        }
      },
      "name": "mixamorig:Spine1",
      "translation": [
        0.0,
        0.10002674907445908,
        3.552713599391162e-17
      ]
    },
    {
      "children": [
        4,
        7,
        31
      ],
      "extras": {
        "FBX-glTF-conv": {
          "skeleton": {
            "skeletonType": "LimbNode"
          }
        }
      },
      "name": "mixamorig:Spine2",
      "rotation": [
        0.012885619886219501,
        -4.771174011430901e-10,
        -3.702404427485817e-08,
        0.9999169707298279
      ],
      "translation": [
        1.137542219454272e-16,
        0.09322090446949005,
        2.8236810667436885e-09
      ]
    },
    {
      "children": [
        5
      ],
      "extras": {
        "FBX-glTF-conv": {
          "skeleton": {
            "skeletonType": "LimbNode"
          }
        }
      },
      "name": "mixamorig:Neck",
      "translation": [
        4.147488342348682e-12,
        0.1686532199382782,
        5.684341759025859e-16
      ]
    },
    {
      "children": [
        6
      ],
      "extras": {
        "FBX-glTF-conv": {
          "skeleton": {
            "skeletonType": "LimbNode"
          }
        }
      },
      "name": "mixamorig:Head",
      "translation": [
        -1.0756747714779635e-09,
        0.09341923147439957,
        0.0284104086458683
      ]
    },
    {
      "extras": {
        "FBX-glTF-conv": {
          "skeleton": {
            "skeletonType": "LimbNode"
          }
        }
      },
      "name": "mixamorig:HeadTop_End",
      "translation": [
        9.85697479194414e-09,
        0.20962782204151154,
        0.10122935473918915
      ]
    },
    {
      "children": [
        8
      ],
      "extras": {
        "FBX-glTF-conv": {
          "skeleton": {
            "skeletonType": "LimbNode"
          }
        }
      },
      "name": "mixamorig:RightShoulder",
      "rotation": [
        -0.4844306409358978,
        0.5709636807441711,
        -0.526163637638092,
        -0.40308716893196106
      ],
      "translation": [
        -0.045699700713157654,
        0.11195844411849976,
        -0.008066318929195404
      ]
    },
    {
      "children": [
        9
      ],
      "extras": {
        "FBX-glTF-conv": {
          "skeleton": {
            "skeletonType": "LimbNode"
          }
        }
      },
      "name": "mixamorig:RightArm",
      "rotation": [
        -0.024616241455078125,
        0.0025622916873544455,
        -0.1034984141588211,
        0.9943216443061829
      ],
      "translation": [
        2.6645351995433716e-17,
        0.10838175565004349,
        -2.8421708795129297e-16
      ]
    },
    {
      "children": [
        10
      ],
      "extras": {
        "FBX-glTF-conv": {
          "skeleton": {
            "skeletonType": "LimbNode"
          }
        }
      },
      "name": "mixamorig:RightForeArm",
      "translation": [
        -9.964063601985984e-11,
        0.27841517329216003,
        2.8421708795129297e-16
      ]
    },
    {
      "children": [
        11,
        15,
        19,
        23,
        27
      ],
      "extras": {
        "FBX-glTF-conv": {
          "skeleton": {
            "skeletonType": "LimbNode"
          }
        }
      },
      "name": "mixamorig:RightHand",
      "translation": [
        2.2858598924813123e-07,
        0.2832883894443512,
        4.472538961408645e-08
      ]
    },
    {
      "children": [
        12
      ],
      "extras": {
        "FBX-glTF-conv": {
          "skeleton": {
            "skeletonType": "LimbNode"
          }
        }
      },
      "name": "mixamorig:RightHandThumb1",
      "rotation": [
        0.2532844841480255,
        0.061618272215127945,
        -0.22821025550365448,
        0.9380672574043274
      ],
      "translation": [
        0.026818519458174706,
        0.024648049846291542,
        0.015739839524030685
      ]
    },
    {
      "children": [
        13
      ],
      "extras": {
        "FBX-glTF-conv": {
          "skeleton": {
            "skeletonType": "LimbNode"
          }
        }
      },
      "name": "mixamorig:RightHandThumb2",
      "rotation": [
        -0.002315749181434512,
        -0.0011704489588737488,
        0.009300109930336475,
        0.9999533891677856
      ],
      "translation": [
        -1.6431300976210554e-16,
        0.04188985377550125,
        -2.8421708795129297e-16
      ]
    },
    {
      "children": [
        14
      ],
      "extras": {
        "FBX-glTF-conv": {
          "skeleton": {
            "skeletonType": "LimbNode"
          }
        }
      },
      "name": "mixamorig:RightHandThumb3",
      "rotation": [
        -0.001664738287217915,
        -0.0008077810634858906,
        0.006919747684150934,
        0.9999743700027466
      ],
      "translation": [
        -1.3877787807814457e-16,
        0.03416271135210991,
        0.0
      ]
    },
    {
      "extras": {
        "FBX-glTF-conv": {
          "skeleton": {
            "skeletonType": "LimbNode"
          }
        }
      },
      "name": "mixamorig:RightHandThumb4",
      "rotation": [
        0.005774853751063347,
        -0.11750920116901398,
        -0.04874370992183685,
        0.9918580055236816
      ],
      "translation": [
        -1.2656542321908107e-16,
        0.025749774649739265,
        -2.8421708795129297e-16
      ]
    },
    {
      "children": [
        16
      ],
      "extras": {
        "FBX-glTF-conv": {
          "skeleton": {
            "skeletonType": "LimbNode"
          }
        }
      },
      "name": "mixamorig:RightHandIndex1",
      "rotation": [
        -6.059340762476495e-07,
        9.953528973261072e-11,
        -0.00016426753427367657,
        1.0
      ],
      "translation": [
        0.022598350420594215,
        0.09108283370733261,
        0.0051786210387945175
      ]
    },
    {
      "children": [
        17
      ],
      "extras": {
        "FBX-glTF-conv": {
          "skeleton": {
            "skeletonType": "LimbNode"
          }
        }
      },
      "name": "mixamorig:RightHandIndex2",
      "rotation": [
        2.0505945404293534e-23,
        -7.940410076867999e-23,
        0.000255644234130159,
        0.9999999403953552
      ],
      "translation": [
        -8.437694881272071e-17,
        0.03700000047683716,
        0.0
      ]
    },
    {
      "children": [
        18
      ],
      "extras": {
        "FBX-glTF-conv": {
          "skeleton": {
            "skeletonType": "LimbNode"
          }
        }
      },
      "name": "mixamorig:RightHandIndex3",
      "rotation": [
        -4.9747562923605403e-23,
        4.3739040002440314e-27,
        -8.792197331786156e-05,
        1.0
      ],
      "translation": [
        -3.4283686068688592e-15,
        0.02850000001490116,
        -8.893152707301066e-12
      ]
    },
    {
      "extras": {
        "FBX-glTF-conv": {
          "skeleton": {
            "skeletonType": "LimbNode"
          }
        }
      },
      "name": "mixamorig:RightHandIndex4",
      "rotation": [
        8.659859673798564e-08,
        0.0010026920353993773,
        8.70583244250156e-05,
        0.9999995231628418
      ],
      "translation": [
        7.90922859026039e-15,
        0.027721906080842018,
        5.114202464295836e-12
      ]
    },
    {
      "children": [
        20
      ],
      "extras": {
        "FBX-glTF-conv": {
          "skeleton": {
            "skeletonType": "LimbNode"
          }
        }
      },
      "name": "mixamorig:RightHandMiddle1",
      "rotation": [
        -9.781740573089337e-07,
        4.908535800041136e-10,
        -0.000501805916428566,
        0.9999998807907104
      ],
      "translation": [
        -2.3687323391641257e-07,
        0.09532501548528671,
        3.9855692079981964e-07
      ]
    },
    {
      "children": [
        21
      ],
      "extras": {
        "FBX-glTF-conv": {
          "skeleton": {
            "skeletonType": "LimbNode"
          }
        }
      },
      "name": "mixamorig:RightHandMiddle2",
      "rotation": [
        3.6964621790549846e-24,
        3.1415185696071442e-27,
        0.0008498714305460453,
        0.9999996423721313
      ],
      "translation": [
        -9.769962563761818e-17,
        0.03700000047683716,
        0.0
      ]
    },
    {
      "children": [
        22
      ],
      "extras": {
        "FBX-glTF-conv": {
          "skeleton": {
            "skeletonType": "LimbNode"
          }
        }
      },
      "name": "mixamorig:RightHandMiddle3",
      "rotation": [
        -3.7123900222606477e-22,
        -7.92898610878295e-23,
        -0.0003218420024495572,
        0.9999999403953552
      ],
      "translation": [
        -2.5224266357153904e-15,
        0.029500000178813934,
        -1.5411359688410897e-10
      ]
    },
    {
      "extras": {
        "FBX-glTF-conv": {
          "skeleton": {
            "skeletonType": "LimbNode"
          }
        }
      },
      "name": "mixamorig:RightHandMiddle4",
      "rotation": [
        1.54982686240146e-07,
        0.0009288141736760736,
        0.00016639448585920036,
        0.9999995827674866
      ],
      "translation": [
        1.1368683518051719e-15,
        0.029466288164258003,
        7.20586992852823e-11
      ]
    },
    {
      "children": [
        24
      ],
      "extras": {
        "FBX-glTF-conv": {
          "skeleton": {
            "skeletonType": "LimbNode"
          }
        }
      },
      "name": "mixamorig:RightHandRing1",
      "rotation": [
        6.963166043760793e-08,
        1.0850652841509767e-11,
        0.00015582930063828826,
        1.0
      ],
      "translation": [
        -0.018651332706212997,
        0.09103592485189438,
        0.00043069649836979806
      ]
    },
    {
      "children": [
        25
      ],
      "extras": {
        "FBX-glTF-conv": {
          "skeleton": {
            "skeletonType": "LimbNode"
          }
        }
      },
      "name": "mixamorig:RightHandRing2",
      "rotation": [
        3.634747933831644e-23,
        -8.051514992114079e-27,
        -0.0002215150889242068,
        1.0
      ],
      "translation": [
        -4.440892164675075e-17,
        0.033792730420827866,
        0.0
      ]
    },
    {
      "children": [
        26
      ],
      "extras": {
        "FBX-glTF-conv": {
          "skeleton": {
            "skeletonType": "LimbNode"
          }
        }
      },
      "name": "mixamorig:RightHandRing3",
      "rotation": [
        -3.0045015947724747e-24,
        -5.2939221570926337e-23,
        -0.00011280510079814121,
        1.0
      ],
      "translation": [
        2.6201263804670168e-15,
        0.028896845877170563,
        8.202221020436884e-12
      ]
    },
    {
      "extras": {
        "FBX-glTF-conv": {
          "skeleton": {
            "skeletonType": "LimbNode"
          }
        }
      },
      "name": "mixamorig:RightHandRing4",
      "rotation": [
        -1.339645194775585e-07,
        0.00014607500634156168,
        -0.0007992861792445183,
        0.9999996423721313
      ],
      "translation": [
        4.725109345270597e-15,
        0.026388157159090042,
        5.682068097284665e-12
      ]
    },
    {
      "children": [
        28
      ],
      "extras": {
        "FBX-glTF-conv": {
          "skeleton": {
            "skeletonType": "LimbNode"
          }
        }
      },
      "name": "mixamorig:RightHandPinky1",
      "rotation": [
        4.670719135901891e-06,
        2.430469825398518e-09,
        0.0005203629843890667,
        0.9999998807907104
      ],
      "translation": [
        -0.038062773644924164,
        0.08076675981283188,
        0.004867036826908588
      ]
    },
    {
      "children": [
        29
      ],
      "extras": {
        "FBX-glTF-conv": {
          "skeleton": {
            "skeletonType": "LimbNode"
          }
        }
      },
      "name": "mixamorig:RightHandPinky2",
      "rotation": [
        -1.2183108245457744e-21,
        -2.750076400683557e-23,
        0.0008462316473014653,
        0.9999996423721313
      ],
      "translation": [
        -1.0658140798173486e-16,
        0.035999998450279236,
        -2.8421708795129297e-16
      ]
    },
    {
      "children": [
        30
      ],
      "extras": {
        "FBX-glTF-conv": {
          "skeleton": {
            "skeletonType": "LimbNode"
          }
        }
      },
      "name": "mixamorig:RightHandPinky3",
      "rotation": [
        1.862293549638181e-21,
        -9.251462901440306e-25,
        -0.0004967778222635388,
        0.9999998807907104
      ],
      "translation": [
        -5.329070729958988e-16,
        0.020999999716877937,
        -2.1163884533770272e-10
      ]
    },
    {
      "extras": {
        "FBX-glTF-conv": {
          "skeleton": {
            "skeletonType": "LimbNode"
          }
        }
      },
      "name": "mixamorig:RightHandPinky4",
      "rotation": [
        -6.420659559580599e-08,
        0.001569481217302382,
        -4.128528235014528e-05,
        0.9999987483024597
      ],
      "translation": [
        1.2967405266435007e-15,
        0.02115781046450138,
        1.4407362802781876e-10
      ]
    },
    {
      "children": [
        32
      ],
      "extras": {
        "FBX-glTF-conv": {
          "skeleton": {
            "skeletonType": "LimbNode"
          }
        }
      },
      "name": "mixamorig:LeftShoulder",
      "rotation": [
        0.4844226837158203,
        0.5709704756736755,
        -0.5261616110801697,
        0.4030897319316864
      ],
      "translation": [
        0.04570446163415909,
        0.11195644736289978,
        -0.008066272363066673
      ]
    },
    {
      "children": [
        33
      ],
      "extras": {
        "FBX-glTF-conv": {
          "skeleton": {
            "skeletonType": "LimbNode"
          }
        }
      },
      "name": "mixamorig:LeftArm",
      "rotation": [
        -0.024606358259916306,
        -0.002561394590884447,
        0.10350453108549118,
        0.9943212866783142
      ],
      "translation": [
        -2.6645351995433716e-17,
        0.10837705433368683,
        0.0
      ]
    },
    {
      "children": [
        34
      ],
      "extras": {
        "FBX-glTF-conv": {
          "skeleton": {
            "skeletonType": "LimbNode"
          }
        }
      },
      "name": "mixamorig:LeftForeArm",
      "translation": [
        8.88178432935015e-17,
        0.2784152030944824,
        -2.8421708795129297e-16
      ]
    },
    {
      "children": [
        35,
        39,
        43,
        47,
        51
      ],
      "extras": {
        "FBX-glTF-conv": {
          "skeleton": {
            "skeletonType": "LimbNode"
          }
        }
      },
      "name": "mixamorig:LeftHand",
      "translation": [
        5.4387349734952295e-08,
        0.2832883596420288,
        -5.5642486174178885e-09
      ]
    },
    {
      "children": [
        36
      ],
      "extras": {
        "FBX-glTF-conv": {
          "skeleton": {
            "skeletonType": "LimbNode"
          }
        }
      },
      "name": "mixamorig:LeftHandThumb1",
      "rotation": [
        0.25309646129608154,
        -0.06132323294878006,
        0.22735275328159332,
        0.9383455514907837
      ],
      "translation": [
        -0.026817314326763153,
        0.02466144785284996,
        0.015761928632855415
      ]
    },
    {
      "children": [
        37
      ],
      "extras": {
        "FBX-glTF-conv": {
          "skeleton": {
            "skeletonType": "LimbNode"
          }
        }
      },
      "name": "mixamorig:LeftHandThumb2",
      "rotation": [
        -0.0020670320373028517,
        0.001042730757035315,
        -0.008213408291339874,
        0.9999635815620422
      ],
      "translation": [
        -8.659739274438866e-17,
        0.04187094420194626,
        0.0
      ]
    },
    {
      "children": [
        38
      ],
      "extras": {
        "FBX-glTF-conv": {
          "skeleton": {
            "skeletonType": "LimbNode"
          }
        }
      },
      "name": "mixamorig:LeftHandThumb3",
      "rotation": [
        -0.0015313589246943593,
        0.0007452552090398967,
        -0.006073119584470987,
        0.999980092048645
      ],
      "translation": [
        -2.3314682789209348e-17,
        0.03418388217687607,
        2.8421708795129297e-16
      ]
    },
    {
      "extras": {
        "FBX-glTF-conv": {
          "skeleton": {
            "skeletonType": "LimbNode"
          }
        }
      },
      "name": "mixamorig:LeftHandThumb4",
      "rotation": [
        0.005153407342731953,
        0.12268278002738953,
        0.04165153577923775,
        0.9915581345558167
      ],
      "translation": [
        1.3988810004397854e-16,
        0.025805814191699028,
        -2.8421708795129297e-16
      ]
    },
    {
      "children": [
        40
      ],
      "extras": {
        "FBX-glTF-conv": {
          "skeleton": {
            "skeletonType": "LimbNode"
          }
        }
      },
      "name": "mixamorig:LeftHandIndex1",
      "rotation": [
        6.665759997304121e-07,
        -2.938034884825136e-11,
        -4.407651795190759e-05,
        1.0
      ],
      "translation": [
        -0.0225986298173666,
        0.09109308570623398,
        0.0051803430542349815
      ]
    },
    {
      "children": [
        41
      ],
      "extras": {
        "FBX-glTF-conv": {
          "skeleton": {
            "skeletonType": "LimbNode"
          }
        }
      },
      "name": "mixamorig:LeftHandIndex2",
      "rotation": [
        3.407213569062151e-07,
        3.5809195886304934e-11,
        0.00010509818093851209,
        1.0
      ],
      "translation": [
        -6.217248964370656e-17,
        0.03700000047683716,
        0.0
      ]
    },
    {
      "children": [
        42
      ],
      "extras": {
        "FBX-glTF-conv": {
          "skeleton": {
            "skeletonType": "LimbNode"
          }
        }
      },
      "name": "mixamorig:LeftHandIndex3",
      "rotation": [
        3.3475055261078523e-07,
        -2.217692522676895e-11,
        -6.624910747632384e-05,
        1.0
      ],
      "translation": [
        -7.176481563414376e-15,
        0.02850000001490116,
        5.684341759025859e-16
      ]
    },
    {
      "extras": {
        "FBX-glTF-conv": {
          "skeleton": {
            "skeletonType": "LimbNode"
          }
        }
      },
      "name": "mixamorig:LeftHandIndex4",
      "rotation": [
        1.0594604304969835e-08,
        -0.0003775632649194449,
        -1.3069537999399472e-05,
        0.9999999403953552
      ],
      "translation": [
        8.588685386262847e-15,
        0.027748655527830124,
        2.8421708795129297e-16
      ]
    },
    {
      "children": [
        44
      ],
      "extras": {
        "FBX-glTF-conv": {
          "skeleton": {
            "skeletonType": "LimbNode"
          }
        }
      },
      "name": "mixamorig:LeftHandMiddle1",
      "rotation": [
        4.0847359628060076e-07,
        -1.2926721325301482e-11,
        -3.164640656905249e-05,
        1.0
      ],
      "translation": [
        -3.6604359365810524e-07,
        0.0953340157866478,
        -3.254047271639138e-07
      ]
    },
    {
      "children": [
        45
      ],
      "extras": {
        "FBX-glTF-conv": {
          "skeleton": {
            "skeletonType": "LimbNode"
          }
        }
      },
      "name": "mixamorig:LeftHandMiddle2",
      "rotation": [
        -1.6358384868908615e-07,
        -3.4673462018242063e-12,
        2.119614146067761e-05,
        1.0
      ],
      "translation": [
        -1.776356799695581e-17,
        0.03700000047683716,
        -2.8421708795129297e-16
      ]
    },
    {
      "children": [
        46
      ],
      "extras": {
        "FBX-glTF-conv": {
          "skeleton": {
            "skeletonType": "LimbNode"
          }
        }
      },
      "name": "mixamorig:LeftHandMiddle3",
      "rotation": [
        -4.2758992435665277e-07,
        -8.846623086866678e-12,
        2.068950198008679e-05,
        1.0
      ],
      "translation": [
        -2.8705926253657504e-14,
        0.029500000178813934,
        -2.8421708795129297e-16
      ]
    },
    {
      "extras": {
        "FBX-glTF-conv": {
          "skeleton": {
            "skeletonType": "LimbNode"
          }
        }
      },
      "name": "mixamorig:LeftHandMiddle4",
      "rotation": [
        -2.6759424898159523e-08,
        -0.0010241407435387373,
        2.7984757252852432e-05,
        0.999999463558197
      ],
      "translation": [
        -8.711254103049154e-14,
        0.029528634622693062,
        -1.421085492696024e-15
      ]
    },
    {
      "children": [
        48
      ],
      "extras": {
        "FBX-glTF-conv": {
          "skeleton": {
            "skeletonType": "LimbNode"
          }
        }
      },
      "name": "mixamorig:LeftHandRing1",
      "rotation": [
        6.248995987334638e-07,
        3.945164507579424e-12,
        6.31327748124022e-06,
        1.0
      ],
      "translation": [
        0.018650811165571213,
        0.09104529023170471,
        0.00043028235086239874
      ]
    },
    {
      "children": [
        49
      ],
      "extras": {
        "FBX-glTF-conv": {
          "skeleton": {
            "skeletonType": "LimbNode"
          }
        }
      },
      "name": "mixamorig:LeftHandRing2",
      "translation": [
        -4.440892164675075e-17,
        0.03150000050663948,
        2.8421708795129297e-16
      ]
    },
    {
      "children": [
        50
      ],
      "extras": {
        "FBX-glTF-conv": {
          "skeleton": {
            "skeletonType": "LimbNode"
          }
        }
      },
      "name": "mixamorig:LeftHandRing3",
      "translation": [
        2.643289143122729e-08,
        0.029500000178813934,
        5.2098596547978104e-09
      ]
    },
    {
      "extras": {
        "FBX-glTF-conv": {
          "skeleton": {
            "skeletonType": "LimbNode"
          }
        }
      },
      "name": "mixamorig:LeftHandRing4",
      "rotation": [
        -2.731693484747666e-07,
        0.0004934373428113759,
        1.6047022654674947e-05,
        0.9999998807907104
      ],
      "translation": [
        -2.3274330374079e-07,
        0.02644316479563713,
        -1.460757559357262e-08
      ]
    },
    {
      "children": [
        52
      ],
      "extras": {
        "FBX-glTF-conv": {
          "skeleton": {
            "skeletonType": "LimbNode"
          }
        }
      },
      "name": "mixamorig:LeftHandPinky1",
      "rotation": [
        -4.975538104190491e-06,
        1.017809747594356e-08,
        0.002044802298769355,
        0.9999979138374329
      ],
      "translation": [
        0.03806263208389282,
        0.08077778667211533,
        0.004868770018219948
      ]
    },
    {
      "children": [
        53
      ],
      "extras": {
        "FBX-glTF-conv": {
          "skeleton": {
            "skeletonType": "LimbNode"
          }
        }
      },
      "name": "mixamorig:LeftHandPinky2",
      "rotation": [
        6.285466724875732e-07,
        -1.3240965268668248e-10,
        -0.00021066000044811517,
        1.0
      ],
      "translation": [
        -3.552713599391162e-17,
        0.035999998450279236,
        5.684341759025859e-16
      ]
    },
    {
      "children": [
        54
      ],
      "extras": {
        "FBX-glTF-conv": {
          "skeleton": {
            "skeletonType": "LimbNode"
          }
        }
      },
      "name": "mixamorig:LeftHandPinky3",
      "rotation": [
        1.0560541596760231e-07,
        -7.084234240894993e-12,
        -6.708211003569886e-05,
        1.0
      ],
      "translation": [
        2.3980817755419855e-15,
        0.020999999716877937,
        2.8421708795129297e-16
      ]
    },
    {
      "extras": {
        "FBX-glTF-conv": {
          "skeleton": {
            "skeletonType": "LimbNode"
          }
        }
      },
      "name": "mixamorig:LeftHandPinky4",
      "rotation": [
        2.20347089907591e-07,
        -0.0007833988056518137,
        -0.0002953855728264898,
        0.9999996423721313
      ],
      "translation": [
        1.1031176040438191e-14,
        0.021255312487483025,
        0.0
      ]
    },
    {
      "children": [
        56
      ],
      "extras": {
        "FBX-glTF-conv": {
          "skeleton": {
            "skeletonType": "LimbNode"
          }
        }
      },
      "name": "mixamorig:RightUpLeg",
      "rotation": [
        2.7047670769775323e-09,
        0.010356475599110126,
        0.9999463558197021,
        2.611527634144295e-07
      ],
      "translation": [
        -0.08207789808511734,
        -0.06771764159202576,
        -0.015122187323868275
      ]
    },
    {
      "children": [
        57
      ],
      "extras": {
        "FBX-glTF-conv": {
          "skeleton": {
            "skeletonType": "LimbNode"
          }
        }
      },
      "name": "mixamorig:RightLeg",
      "rotation": [
        -0.038091376423835754,
        -8.163152376283733e-10,
        2.1414892970028632e-08,
        0.9992742538452148
      ],
      "translation": [
        6.197273944019699e-11,
        0.44371461868286133,
        -1.6620038975100125e-15
      ]
    },
    {
      "children": [
        58
      ],
      "extras": {
        "FBX-glTF-conv": {
          "skeleton": {
            "skeletonType": "LimbNode"
          }
        }
      },
      "name": "mixamorig:RightFoot",
      "rotation": [
        0.4597400724887848,
        1.8629070183651787e-23,
        -1.2432846574483847e-07,
        0.8880535364151001
      ],
      "translation": [
        -5.538293434970143e-11,
        0.445278137922287,
        1.77635686587003e-16
      ]
    },
    {
      "children": [
        59
      ],
      "extras": {
        "FBX-glTF-conv": {
          "skeleton": {
            "skeletonType": "LimbNode"
          }
        }
      },
      "name": "mixamorig:RightToeBase",
      "rotation": [
        0.33524152636528015,
        -1.053585348959359e-23,
        -1.1130089205835247e-07,
        0.9421322345733643
      ],
      "translation": [
        0.0,
        0.13816866278648376,
        5.329070399086743e-17
      ]
    },
    {
      "extras": {
        "FBX-glTF-conv": {
          "skeleton": {
            "skeletonType": "LimbNode"
          }
        }
      },
      "name": "mixamorig:RightToe_End",
      "rotation": [
        6.777633595923944e-21,
        0.011608067899942398,
        -7.868053230286231e-23,
        0.9999326467514038
      ],
      "translation": [
        0.0,
        0.09278120845556259,
        4.2891038605271045e-17
      ]
    },
    {
      "children": [
        61
      ],
      "extras": {
        "FBX-glTF-conv": {
          "skeleton": {
            "skeletonType": "LimbNode"
          }
        }
      },
      "name": "mixamorig:LeftUpLeg",
      "rotation": [
        2.819148248178749e-09,
        0.01036795973777771,
        0.9999462366104126,
        2.71895032710745e-07
      ],
      "translation": [
        0.08207788318395615,
        -0.0677180290222168,
        -0.01512213796377182
      ]
    },
    {
      "children": [
        62
      ],
      "extras": {
        "FBX-glTF-conv": {
          "skeleton": {
            "skeletonType": "LimbNode"
          }
        }
      },
      "name": "mixamorig:LeftLeg",
      "rotation": [
        -0.03811245039105415,
        -8.172602594669343e-10,
        2.142781418967843e-08,
        0.9992734789848328
      ],
      "translation": [
        6.468267588211063e-11,
        0.443713903427124,
        3.752553950287971e-16
      ]
    },
    {
      "children": [
        63
      ],
      "extras": {
        "FBX-glTF-conv": {
          "skeleton": {
            "skeletonType": "LimbNode"
          }
        }
      },
      "name": "mixamorig:LeftFoot",
      "rotation": [
        0.45974859595298767,
        -2.9806661230781766e-23,
        -1.1668517885254914e-07,
        0.8880491256713867
      ],
      "translation": [
        -5.547779249881479e-11,
        0.44527846574783325,
        -2.220446049250313e-16
      ]
    },
    {
      "children": [
        64
      ],
      "extras": {
        "FBX-glTF-conv": {
          "skeleton": {
            "skeletonType": "LimbNode"
          }
        }
      },
      "name": "mixamorig:LeftToeBase",
      "rotation": [
        0.33524149656295776,
        -1.7559756604850222e-23,
        -1.1452078751972294e-07,
        0.9421322345733643
      ],
      "translation": [
        1.776356799695581e-17,
        0.13816864788532257,
        -2.6645351995433716e-17
      ]
    },
    {
      "extras": {
        "FBX-glTF-conv": {
          "skeleton": {
            "skeletonType": "LimbNode"
          }
        }
      },
      "name": "mixamorig:LeftToe_End",
      "rotation": [
        5.028203748613708e-24,
        -0.011869166046380997,
        4.236059872517874e-22,
        0.9999295473098755
      ],
      "translation": [
        0.0,
        0.09278136491775513,
        -1.312535123541172e-17
      ]
    },
    {
      "mesh": 0,
      "name": "Beta_Surface",
      "skin": 0
    },
    {
      "mesh": 1,
      "name": "Beta_Joints",
      "skin": 1
    }
  ],
  "scenes": [
    {
      "nodes": [
        0,
        65,
        66
      ]
    }
  ],
  "skins": [
    {
      "inverseBindMatrices": 6,
      "joints": [
        0,
        1,
        2,
        3,
        4,
        5,
        6,
        7,
        8,
        9,
        10,
        11,
        12,
        13,
        14,
        15,
        16,
        17,
        18,
        19,
        20,
        21,
        22,
        23,
        24,
        25,
        26,
        27,
        28,
        29,
        30,
        31,
        32,
        33,
        34,
        35,
        36,
        37,
        38,
        39,
        40,
        41,
        42,
        43,
        44,
        45,
        46,
        47,
        48,
        49,
        50,
        51,
        52,
        53,
        54,
        55,
        56,
        57,
        58,
        59,
        60,
        61,
        62,
        63,
        64
      ]
    },
    {
      "inverseBindMatrices": 13,
      "joints": [
        0,
        1,
        2,
        3,
        4,
        5,
        7,
        8,
        9,
        10,
        11,
        12,
        13,
        14,
        15,
        16,
        17,
        18,
        19,
        20,
        21,
        22,
        23,
        24,
        25,
        26,
        27,
        28,
        29,
        30,
        31,
        32,
        33,
        34,
        35,
        36,
        37,
        38,
        39,
        40,
        41,
        42,
        43,
        44,
        45,
        46,
        47,
        48,
        49,
        50,
        51,
        52,
        53,
        54,
        55,
        56,
        57,
        58,
        59,
        60,
        61,
        62,
        63,
        64
      ]
    }
  ]
}